<svg xmlns="http://www.w3.org/2000/svg" width="400" height="258.3">
  <g fill-rule="evenodd">
    <path fill="#070808" d="M127.8 61.8v61.7l-1.3-.9a53.3 53.3 0 0 1-2-1.4l-1-.5-.4-.3c0-.2-1-.8-1.8-1.4a30.8 30.8 0 0 1-3.2-2.2l-.9-.5a36.7 36.7 0 0 0-4-2.8l-.8-.5-1-.6a28.7 28.7 0 0 0-1.6-1.2 52.3 52.3 0 0 1-1.8-1.2 8 8 0 0 0-1.3-.8l-1-.8c-1.2-.8-3-2-3.3-2-.2 0-.2 7.7-.2 30.7v30.7l-1.8-1.2a67.7 67.7 0 0 1-3.7-2.4 47 47 0 0 0-5-3.4 46 46 0 0 1-1.8-1.3l-1-.7-1.3-.8-1.6-1.1-1.4-1a6 6 0 0 0-1.2-.8 2.2 2.2 0 0 1-.7-.4c-.1-.2-1-.8-1.9-1.4a62.7 62.7 0 0 1-2.3-1.6l-1-.5-.4-.3c-.2-.3-1-.9-4.4-3.1a33.4 33.4 0 0 1-1.4-1 81.8 81.8 0 0 0-2.1-1.4 53 53 0 0 1-3.8-2.5 23.4 23.4 0 0 0-1.3-1 60.4 60.4 0 0 1-1.9-1.3l-1.5-1-1-.6-1.2-1c-.3 0-1-.5-1.6-1a34.8 34.8 0 0 0-1.6-1 20.7 20.7 0 0 1-1.4-1 20.8 20.8 0 0 0-1.3-1 101.5 101.5 0 0 1-6.3-4 69 69 0 0 0-4.9-3.5 243.8 243.8 0 0 1-2.9-2 64.7 64.7 0 0 0-5.5-3.8 35.9 35.9 0 0 1-2.1-1.4 5 5 0 0 0-1-.6l-1-.7a35.7 35.7 0 0 0-1.6-1.1l-.7-.5v-15.5l-.1-15.5-1.1-.7A44 44 0 0 1 23 83l-1.2-.8-.5-.3a88.2 88.2 0 0 0-6-4.2A86.2 86.2 0 0 0 9.5 74a12.4 12.4 0 0 0-1.3-.9 29.5 29.5 0 0 1-1.8-1.2A33.3 33.3 0 0 0 3.8 70a7.6 7.6 0 0 0-1.1-.8l-.8-.5-1-.7-.7-.5v63.1l1.7 1.2a29.6 29.6 0 0 1 3 2 94 94 0 0 1 6.6 4.5 29 29 0 0 1 4.9 3.3l.9.6 2.1 1.5 2 1.4.4.2 1.5 1a7.6 7.6 0 0 0 1.9 1.2l1.8 1.3a21.3 21.3 0 0 1 3 2 79 79 0 0 1 6.4 4.3 58.6 58.6 0 0 0 6 4.2 42.6 42.6 0 0 0 4.2 2.9l.5.3 1 .6a28.7 28.7 0 0 0 3.4 2.4l1.6 1 .8.6a48 48 0 0 0 3 2.1 335.7 335.7 0 0 1 4.6 3.1 46.3 46.3 0 0 0 4 2.7l1.3 1c.3 0 .7.3.8.4.1.2 1 .7 2 1.3a36 36 0 0 1 2.8 2 106 106 0 0 1 8.6 5.9 26.4 26.4 0 0 1 2.6 1.7l1 .7a81 81 0 0 0 8 5.5c.2 0 1 .7 2 1.3a27.8 27.8 0 0 1 2.5 1.8 137.6 137.6 0 0 1 8.6 5.8 30 30 0 0 1 3.1 2.1l.8.5a138.8 138.8 0 0 0 10.6 7.2l1.3 1 1.9 1.2a24.8 24.8 0 0 1 2.5 1.8l1 .6c1.2 1 1.7 1.2 1.8 1l.1-30.8c0-29.2 0-30.7.3-30.5l.8.5.8.5 1.3 1a51.7 51.7 0 0 1 4.6 3c.6.6 1.3 1 1.4 1l.5.4 2 1.4a31.2 31.2 0 0 1 3 2l.7.4a85.6 85.6 0 0 0 6 4c0 .2 1.8 1.5 3.8 2.7.1 0 .2-15.5.2-77.8V17.7L153 17a480.5 480.5 0 0 1-4.8-3.2 131.2 131.2 0 0 0-3-2l-1.3-1-1.9-1.3a24.9 24.9 0 0 1-2.5-1.7l-1-.6c-1.1-.9-4.4-3-5-3.4a4.4 4.4 0 0 1-.8-.5c-.6-.6-4.5-3.1-4.7-3.1-.2 0-.3 9.7-.3 61.6m143.5-15.3v46.3l-.7-.5a3 3 0 0 0-.9-.5s-.3 0-.4-.2a49.1 49.1 0 0 1-5.6-3.9c-.7-.6-4-2.8-4.7-3.2a10.3 10.3 0 0 1-1.1-.8l-4.9-3.3a11.7 11.7 0 0 1-1.3-1 6.4 6.4 0 0 0-1-.6l-1.6-1a30 30 0 0 0-3-2.1 17.5 17.5 0 0 0-1.4-1 31.6 31.6 0 0 1-1.6-1l-1.5-1a11 11 0 0 1-1.3-1l-1.2-.8c-.2 0-.7-.4-1-.7a55.2 55.2 0 0 0-2.2-1.5 502.5 502.5 0 0 1-5.1-3.4 136.4 136.4 0 0 0-2.8-1.9 21.3 21.3 0 0 1-1.4-1 24.5 24.5 0 0 0-1.7-1.1A29.5 29.5 0 0 1 223 60l-1-.7-1-.6-.8-.5-.1 16V90l.9.7 1.4 1c.3.1.7.3.8.5s1 .7 1.9 1.3a28.2 28.2 0 0 1 2.9 2l1 .6a39 39 0 0 0 4.1 3l.7.3.7.4c.3.3 1.2 1 2.1 1.5a24.1 24.1 0 0 1 2.8 2l.9.5a9.2 9.2 0 0 0 2.1 1.4c0 .2 2.2 1.6 2.8 2 .2 0 .7.4 1 .7l1.2.8.8.5a33.4 33.4 0 0 0 3.7 2.5 113.3 113.3 0 0 1 9.4 6.4 30 30 0 0 1 3.2 2.2l.8.5a76.8 76.8 0 0 0 5.7 4 92.8 92.8 0 0 0 7.8 5.2 34 34 0 0 1 2.8 2l1.5 1 1.2.7a16.3 16.3 0 0 0 3 2.1l1.1.8 1.3.8.7.5 2 1.5a66.3 66.3 0 0 1 3.6 2.3 42.5 42.5 0 0 1 5.8 4l2.4 1.7a327 327 0 0 1 14 9.5c.3.1.7.3.8.5a7.2 7.2 0 0 0 2.1 1.4l2.6 1.8 1.3.9 1.4.9.5.4 2 1.4a24 24 0 0 1 2 1.4l1 .6c.2 0 .7.4 1 .6a70 70 0 0 0 5.6 3.8 70.2 70.2 0 0 0 5.7 4 57.7 57.7 0 0 0 5.9 4 93 93 0 0 0 8 5.4l1.6 1a63.6 63.6 0 0 1 2.1 1.6l1.2.7a11.2 11.2 0 0 0 2.2 1.6 43 43 0 0 1 4 2.6c.2.2 1.2 1 2.1 1.5a26.3 26.3 0 0 1 2.8 1.9l.8.5 2 1.5a38.2 38.2 0 0 1 3.8 2.5l1.4 1a32.5 32.5 0 0 1 3.4 2.2l.9.7a82.6 82.6 0 0 0 7.1 4.9c.4.1.7.4.9.5a33 33 0 0 0 3.7 2.5c.1.3 1.4 1 1.6 1 .2 0 .2-12 .2-62.3V87.7l-1.6-1.1a40 40 0 0 1-3.3-2.3l-.9-.5a36.7 36.7 0 0 0-4-2.8l-.8-.5-.6-.3a84.7 84.7 0 0 0-6.1-4.3l-2.2-1.5a233.4 233.4 0 0 1-5.4-3.6 81 81 0 0 0-2.5-1.7 19.9 19.9 0 0 1-1.4-1l-1.5-1a76.8 76.8 0 0 1-6.3-4.2l-1.9-1.4a60.6 60.6 0 0 1-2.3-1.6 3 3 0 0 0-1-.6s-.3 0-.4-.2c-.1-.2-1-.9-2.1-1.6l-2.8-1.8a282.6 282.6 0 0 1-5.4-3.7 10.3 10.3 0 0 1-1.1-.8l-4.9-3.3a16.6 16.6 0 0 1-1.4-1l-1-.7-1.5-1a29.5 29.5 0 0 0-3-2 17.5 17.5 0 0 0-1.4-1 31.6 31.6 0 0 1-1.6-1l-1.5-1a11 11 0 0 1-1.3-1 6 6 0 0 0-1.2-.8 2.2 2.2 0 0 1-.7-.4 37.6 37.6 0 0 0-4-2.8l-.2-.2c-.1 0-.2 12-.2 31.5v31.4l.7.6 1.3.9.8.5 1.9 1.3a63.6 63.6 0 0 1 3.7 2.4 58.4 58.4 0 0 0 6 4.1 127.7 127.7 0 0 0 7.5 5.2 85.5 85.5 0 0 0 4.3 3l.1-15.4.1-15.3a30.9 30.9 0 0 1 4.4 2.8l.5.3a98.1 98.1 0 0 0 7.6 5.3 123.3 123.3 0 0 0 6.1 4 39.9 39.9 0 0 0 3.9 2.8l1.1.7.8.6c.1.2.2 7 .2 30.5v30.4l-.5-.5-1.7-1.2a35 35 0 0 1-2-1.4l-1-.7-.6-.3a55.7 55.7 0 0 0-5-3.5l-1.3-.9-1.4-.9-1.4-1c-.7-.4-1.4-1-1.7-1l-1.5-1.1-1.1-.8-.5-.3-2-1.3a62.7 62.7 0 0 1-2.3-1.7l-1-.5-.4-.3-2-1.5a167.7 167.7 0 0 1-2.4-1.6 20 20 0 0 0-1-.6 110.6 110.6 0 0 1-6.3-4.3 30.8 30.8 0 0 0-1.8-1.3 33.9 33.9 0 0 1-1.9-1.3l-1-.6-.9-.6-2.4-1.7a326.9 326.9 0 0 1-8-5.4 11.7 11.7 0 0 1-1.4-1l-1-.7a3.6 3.6 0 0 1-.7-.4l-2.2-1.6a485.9 485.9 0 0 0-5.2-3.5 45.6 45.6 0 0 1-4.2-2.8l-2-1.4a30.3 30.3 0 0 1-2.8-1.9s-.6-.3-1.1-.8l-1.5-1-.5-.3V64.5c0-37 0-46.5-.2-46.6a26 26 0 0 1-2.5-1.6l-1.4-.9-1.4-1-1.4-.9-.4-.2c-.2-.3-2.2-1.7-4.9-3.5a133.2 133.2 0 0 1-8.4-5.7 36 36 0 0 1-2.1-1.5 5 5 0 0 0-1-.6l-1-.6a25.9 25.9 0 0 0-1.3-1l-.5-.3v46.4M133.1 4.4a3763.4 3763.4 0 0 1 18.1 12.3l2.3 1.5v77c0 63.6 0 76.8-.2 76.8l-10.6-7.2a873.6 873.6 0 0 0-5.4-3.7l-6.8-4.6-2.4-1.7v30.9c0 17-.1 30.8-.2 30.8l-14.3-9.7a9688.6 9688.6 0 0 0-9.4-6.4l-9.3-6.3a3835.9 3835.9 0 0 0-6.9-4.7 5533 5533 0 0 1-13.6-9.3l-5.7-3.9a8792.4 8792.4 0 0 1-13.8-9.4 74944.4 74944.4 0 0 0-27-18.3 3819.7 3819.7 0 0 0-7.6-5.2 5025 5025 0 0 1-10.6-7.2 2850 2850 0 0 0-6-4l-3-2.1V99.5C.7 74.2.7 69 .9 69L6 72.5a1742.7 1742.7 0 0 0 19.6 13.4l.1 15.5v15.4l2 1.4a945 945 0 0 0 11.5 7.8 22353.9 22353.9 0 0 1 19.2 13l18.7 12.8 9.7 6.6a7654.9 7654.9 0 0 1 7.8 5.3l8.1 5.5c.1 0 .2-12.3.2-30.8v-30.7a429.9 429.9 0 0 1 16.5 11l5.7 4 3.2 2.1V63.1c0-49.3.1-61.8.3-61.7l4.4 3m144.3.8a3175.4 3175.4 0 0 1 11.4 7.8l5.4 3.6 2.8 2v92.7l1.5 1a2320.8 2320.8 0 0 0 28.3 19.3 15101.2 15101.2 0 0 1 17.8 12 5887.9 5887.9 0 0 1 16.1 11l3.6 2.5 6.1 4.2 3.7 2.4c.2 0 0-62.5-.2-62.6l-4.7-3.1a1642.5 1642.5 0 0 0-6.5-4.5 828 828 0 0 1-4-2.7l-5.4-3.7a363.8 363.8 0 0 1-4.4-3l-.7-.5v30.9l-2.6-1.7a2278.1 2278.1 0 0 1-4.3-3 3367 3367 0 0 0-13.2-9 397.1 397.1 0 0 1-3.9-2.6l-1-.7v-61c.2 0 1.8 1.1 8.2 5.4l7.8 5.4a895 895 0 0 1 5.7 3.9l5.5 3.7a4444.6 4444.6 0 0 1 14.1 9.6 1852.8 1852.8 0 0 0 22.7 15.4c2.2 1.6 6 4 8.1 5.6l4 2.7v61.4c0 52.1 0 61.4-.2 61.3l-2.9-1.8-5.5-3.8-6.6-4.5a28609.2 28609.2 0 0 0-19.1-13 8105.7 8105.7 0 0 0-8.4-5.7 1411.5 1411.5 0 0 1-10.8-7.4 4454 4454 0 0 1-8.6-5.8 14669.7 14669.7 0 0 0-58.8-40 4315.1 4315.1 0 0 1-5.6-3.9l-4.7-3-6.6-4.6a4750.6 4750.6 0 0 0-6.2-4.1l-5.5-3.8a3686 3686 0 0 0-5.6-3.8 6446.6 6446.6 0 0 1-5.2-3.6l-4.8-3.2-4.4-3-4.5-3.1a287.2 287.2 0 0 1-3.4-2.3l-1-.8v-15l.1-15c.2 0 1.2.7 7.8 5.3a3620.2 3620.2 0 0 0 25 17 2983.3 2983.3 0 0 1 5.2 3.5 1940.3 1940.3 0 0 0 12.9 8.8l.1-46.3V1.7l5.4 3.5M176.6 86.6a243.3 243.3 0 0 0-2.4 17 170.8 170.8 0 0 0-1.9 13l-1 7a231.3 231.3 0 0 1-2 14.1l-.9 6.5a151.1 151.1 0 0 0-1.7 13.1c.1.3.5.5 7.1 3.7a8899.2 8899.2 0 0 1 30.6 14.7c.1 0-.2 1.8-1.4 7.3a250.6 250.6 0 0 0-2.3 10.6l-.5 2.6-1 4.3c-.5 2.2-1 4.4-1 5l-1.3 5.7-.6 2.9c0 .3-1.1 5.6-1.4 6.4 0 .3-.1.3-.4.1l-1.3-.7a169.7 169.7 0 0 1-4.2-2.5 60.7 60.7 0 0 0-3.4-2 141.8 141.8 0 0 0-1.9-1.1 178.8 178.8 0 0 1-4.2-2.6 69 69 0 0 0-1.6-1l-2-1.1a179.6 179.6 0 0 0-2-1.2l-1.6-1-4.1-2.4a40.8 40.8 0 0 1-2-1.2l-1.6-1-1.4-.8a29 29 0 0 0-2-1.2 16 16 0 0 1-1.5-1 7.9 7.9 0 0 0-1.2-.6l-1.8-1c-.7-.5-1.4-1-1.6-1l-1.4-.8c-.5-.4-1.4-1-2-1.2a28.3 28.3 0 0 1-1.9-1.2l-1-.7c-.2 0-.8-.3-1.5-.8a27 27 0 0 0-3.1-1.8 7 7 0 0 0-2-1.2 33.4 33.4 0 0 1-1.8-1.1l-1-.5-1.2 9a779.1 779.1 0 0 1-1 6.5 219.2 219.2 0 0 0-1.4 11.3c-.8 5.2-.8 4.8.2 5.3l2.8 1.4a1635.8 1635.8 0 0 0 15.4 8.1l4.3 2.3a159.8 159.8 0 0 0 6.4 3.4l2 1a12.1 12.1 0 0 0 2.4 1.2l2.8 1.5a1055 1055 0 0 1 13.9 7.3 2534.7 2534.7 0 0 0 8.9 4.7l3.2 1.7a62 62 0 0 1 2.4 1.3l1 .4.6.3a48.5 48.5 0 0 0 6 3.3c1 .6 1.3.4 1.7-1.7a62.4 62.4 0 0 1 1.7-6.2l1-3.6a49.5 49.5 0 0 0 2-6.9l.8-3.3.9-3a66.4 66.4 0 0 1 3-10.7c0-.4.4-1.6.7-2.7l1-3.4a149 149 0 0 1 2.2-8 61.5 61.5 0 0 1 1.9-6.8l1-3.3a52.8 52.8 0 0 0 2-7.5l.8-3.4 1-3.9a431.2 431.2 0 0 0 2.5-9.2 316.9 316.9 0 0 1 3.3-12.5l.9-3.5 1-3.7a50.2 50.2 0 0 0 1.6-6.4 77.5 77.5 0 0 0 2.2-8.1 96.7 96.7 0 0 0 2-7.7l.9-3.1 1-3.8a50.6 50.6 0 0 0 1.8-7 245.2 245.2 0 0 1-13.5-6.4l-2.2-1a33.6 33.6 0 0 1-4.2-2l-2.2-1a72.1 72.1 0 0 1-10.6-4.8l-2-.9-2-.9c-.1 0-.9-.3-1.7-.8a39.8 39.8 0 0 0-2.8-1.2l-1.9-.9a15 15 0 0 0-1.4-.7 201 201 0 0 1-11.2-5l-2.2-1-2-1-2-.9-1.5-.7a39.8 39.8 0 0 0-2.6-1.1 46.7 46.7 0 0 1-2.7-1.3c-1.7-.9-1.6-.8-1.7-.3m3.3 1.9a1041.7 1041.7 0 0 1 8.8 4l3.7 1.7a2203.6 2203.6 0 0 0 9.3 4.2 697.2 697.2 0 0 1 7.8 3.6l10.4 4.7a9391.5 9391.5 0 0 1 17 7.8 644 644 0 0 0 4 1.8c5.1 2.3 5.3 2.4 5.2 2.7a676.7 676.7 0 0 0-4.4 16.5A7602 7602 0 0 0 238 150l-2 7.6-1.9 7.2a11097 11097 0 0 0-3.7 14.2l-3.8 14.4a271.5 271.5 0 0 1-1.3 4.7 630 630 0 0 0-5.5 19.8 2610.2 2610.2 0 0 1-9.7 34.6 154.2 154.2 0 0 0-1.3 4.6l-11.8-6-12.8-6.8a578.4 578.4 0 0 1-3-1.5 11324.8 11324.8 0 0 0-30.5-16 1699.4 1699.4 0 0 0-10-5.3l-4.6-2.4v-.8a1216.5 1216.5 0 0 1 4-29 15227 15227 0 0 0 55.3 32.6l.9-3.4a3951.7 3951.7 0 0 1 2.5-12 834.7 834.7 0 0 1 1.3-6l1.5-6.8 1.5-7.1 2.3-11.2c0-.2-1-.7-2.6-1.5a9446.8 9446.8 0 0 0-15.6-7.5l-3.7-1.7a930.9 930.9 0 0 0-6.7-3.2 678.2 678.2 0 0 1-3.7-1.8 512.6 512.6 0 0 0-4-1.9l-1.6-.7.5-4 1.2-8.8 1.4-9.5a1502.6 1502.6 0 0 0 3.2-22.4 891.3 891.3 0 0 1 3.5-24.9c0-.2-.1-.3 2.7 1m11.8 28-.5 2.8a661.7 661.7 0 0 0-1.4 7.7 2737.8 2737.8 0 0 1-3.1 18.7l7.4 3.2a3450.4 3450.4 0 0 1 12.4 5.3l2 .8 2.8-8.7 1.8-6 1.9-6.3 1.5-5 .5-1.8-3.6-1.5a454.2 454.2 0 0 1-4.2-1.9 1532.5 1532.5 0 0 0-8.9-3.8 813 813 0 0 1-5.1-2.2c-3.3-1.5-3.5-1.6-3.5-1.4m3.3 2.1 2.2 1 2.4 1 1.8.8c1 .5 2 1 2.3 1l2.3 1 2.4 1a34 34 0 0 1 4.2 1.9 9 9 0 0 1 3.4 1.8l-.3 1a109.4 109.4 0 0 1-2.2 7.3l-1 3-.8 3-1 3.4-1 3.2-1.6 5-.5-.1-1.4-.6a32.5 32.5 0 0 1-2.5-1l-2-1c-.4 0-1.4-.4-2.1-.8-2.3-1-2.4-1-2.6-1l-2.3-1-2.3-1-2.2-1-2.3-.9c-.5 0-.5-.4 1.5-11.5l1-5.5c0-.3 1.5-9.2 1.9-10.8 0-.3 0-.3 1.3.2l1.4.6M25.5 193.7v16l.4.3.7.3.5.3L29 212a60.6 60.6 0 0 1 2.3 1.6c.4.3.8.6 1 .6 0 0 .3 0 .4.2a158.4 158.4 0 0 1 4.4 3.1 19 19 0 0 0 1 .7 110 110 0 0 1 6.3 4.3 23.3 23.3 0 0 0 1.6 1 33.1 33.1 0 0 1 1.9 1.4l1.2.8 1.3.9 1.3.9 1.2.8a33 33 0 0 0 3 2l1.4 1a31.5 31.5 0 0 1 1.6 1l1.6 1.1 1.2.9 1.1.8c.3 0 .6.3.8.4l1.9 1.3a61.8 61.8 0 0 1 2.3 1.7l1 .5.5.3c.1.2.9.8 1.6 1.2l2 1.4 1.2.8L76 244a7 7 0 0 0 1.4 1c.2 0 .2-3.3.2-16v-16l-1.2-.8-1.4-1-.9-.6-.9-.5a86.8 86.8 0 0 0-5.9-4.1 80.8 80.8 0 0 0-5.5-3.8A88.4 88.4 0 0 0 54 197a69.2 69.2 0 0 1-5.7-3.9 42.6 42.6 0 0 1-5.8-4l-2.1-1.5a24.5 24.5 0 0 1-2.8-1.8l-.9-.6a77 77 0 0 0-5.8-4l-1.7-1.2a35.3 35.3 0 0 1-3.1-2l-.5-.1v16m2.4-13.7A1187.6 1187.6 0 0 1 46.8 193a360.4 360.4 0 0 0 3.8 2.5l.8.6v15.1l-.1 15-12.6-8.5a5962 5962 0 0 0-8.4-5.7l-3.9-2.6v-15l.1-15.1 1.5.9m294.6 18.5v16l.5.4 1.3 1a101.7 101.7 0 0 1 6 4 92.8 92.8 0 0 1 6.2 4.1l2 1.5a31.2 31.2 0 0 1 3 1.9l.5.3a86 86 0 0 0 6.6 4.5c.3 0 .3-32 .1-32l-.7-.4-1-.8a97.2 97.2 0 0 1-8.8-5.9 22.6 22.6 0 0 1-2.6-1.8 101.6 101.6 0 0 1-2.7-1.8 95.6 95.6 0 0 0-2.8-1.9l-1.2-.8a28 28 0 0 0-2-1.5 26.4 26.4 0 0 1-2.8-1.8 4.3 4.3 0 0 1-.9-.6l-.5-.3c-.1 0-.2 5-.2 15.9m3.7-12.7a8509.3 8509.3 0 0 1 12.8 8.8l5.3 3.5 3.9 2.7v15c0 12.4 0 15.1-.3 15 0 0-2-1.2-4-2.7a16414.2 16414.2 0 0 0-18-12.2l-2.7-1.9v-15c0-8.5 0-15.1.1-15l2.9 1.8m-265 16.9 6.4 4.3 6.9 4.7 2.3 1.6v30.1l-3.2-2a4982.3 4982.3 0 0 0-5.4-3.8 3980.1 3980.1 0 0 1-14.3-9.7l-1.9-1.3v-30.2l3.7 2.5 5.5 3.8"/>
    <path fill="#dbe3ec" d="M128.7 63.3c0 49.3 0 61.7-.2 61.7s-1.3-.8-2.5-1.7a758 758 0 0 0-4.2-2.8 2663.7 2663.7 0 0 1-9.1-6.2l-5.7-4-3.8-2.5v30.7l-.1 30.9c-.1 0-1.5-.8-7-4.5a2736.5 2736.5 0 0 0-7-4.8 5257.8 5257.8 0 0 1-8-5.5l-9.7-6.6-10.2-7-6.8-4.6-5.7-3.9a4467.6 4467.6 0 0 0-7.3-5l-6.6-4.4a2922.8 2922.8 0 0 0-8.8-6 82 82 0 0 1-.3-15.8V86l-2-1.4A1339.8 1339.8 0 0 1 .8 69.2v60.7l3.9 2.7a2091 2091 0 0 1 23.5 16A14112.3 14112.3 0 0 0 96.5 195a19422.2 19422.2 0 0 0 27.3 18.6l4 2.7v-30.6l.1-30.8c0-.2 1.1.5 3.2 1.9a25306 25306 0 0 1 12.2 8.3l7.2 4.9 3 2V18.4l-.8-.5-10.1-7-6.8-4.5a2045.2 2045.2 0 0 1-5-3.5l-2.1-1.4v61.8M272.2 48c0 41.7 0 46.3-.3 46.2l-14.2-9.6a3211.5 3211.5 0 0 0-8.2-5.6 969.4 969.4 0 0 1-5.8-4 839.9 839.9 0 0 0-5.5-3.7 4113.5 4113.5 0 0 1-7-4.7l-10.1-6.9-.1 15v14.8l3.3 2.3 8.8 6 8.5 5.8a34515.9 34515.9 0 0 1 43.6 29.6 5999.9 5999.9 0 0 0 14 9.6 1008.9 1008.9 0 0 1 5.8 4l5.8 3.8a3738.7 3738.7 0 0 1 13.8 9.5 1340.1 1340.1 0 0 0 14.2 9.7 23875.5 23875.5 0 0 0 38 25.8 7885.2 7885.2 0 0 1 18 12.3l4.2 2.8c.1 0 .2-25.9.2-61.3V88.2l-1.2-.7-4-2.8a6190.5 6190.5 0 0 0-11.2-7.6 7172.3 7172.3 0 0 1-35.3-24 10007 10007 0 0 0-9.8-6.7 4335.5 4335.5 0 0 1-8.8-6 345 345 0 0 0-5.3-3.6c-.3-.1-.3 1.4-.3 30.3v30.4l2 1.3a8058.5 8058.5 0 0 1 16.8 11.5l5.8 3.9.1-15.3.1-15.3 3.3 2a2697.2 2697.2 0 0 0 19.9 13.6l3 2V164l-.4-.3a291.7 291.7 0 0 1-9.4-6.3 2690.5 2690.5 0 0 1-5.7-3.9 1446.7 1446.7 0 0 0-4.4-3 1289.7 1289.7 0 0 1-3.9-2.7 7108.7 7108.7 0 0 0-43.8-29.8 4538.6 4538.6 0 0 0-7.7-5.2l-2.2-1.5V18.5l-1.8-1.2a834.4 834.4 0 0 1-4.6-3l-4.8-3.4-5.5-3.7-7.7-5.3c-.2 0-.2 9.2-.2 46.2m-95 39.8-.7 5.3a1097.2 1097.2 0 0 1-1.2 8.2 504 504 0 0 0-.8 6 914.2 914.2 0 0 1-1 7.6 2727.8 2727.8 0 0 0-2.8 19.5 1488.8 1488.8 0 0 1-3.2 22.4l6.3 3 31.7 15.2-1.7 8.6-1.5 6.6-1.5 7.3a911.4 911.4 0 0 0-2.3 10.6 2641 2641 0 0 0-2.5 11.6c-.5 2.6-.5 2.5-1.2 2a7922.2 7922.2 0 0 1-15.5-9.1 8394 8394 0 0 0-10.7-6.4 4871.6 4871.6 0 0 1-10-6 5685.6 5685.6 0 0 0-17.4-10.4c-1.2-.7-1.1-.7-1.3.5a352.9 352.9 0 0 1-1.8 13.6 1263 1263 0 0 1-2 14.5c0 .4 0 .5 2 1.6a1252.3 1252.3 0 0 1 21.1 11 6928.9 6928.9 0 0 1 26.6 14c7.7 4 22.7 12 22.8 11.9a734.9 734.9 0 0 0 6.4-22.8 2903.5 2903.5 0 0 0 13.6-49.4l2-7.2a4935.7 4935.7 0 0 0 3.6-13.9l1.9-7.2a6428.2 6428.2 0 0 1 5.8-22 3398.3 3398.3 0 0 0 2-7.3 2593.6 2593.6 0 0 1 2-8.4l-1.5-.8a4296 4296 0 0 1-20.7-9.4 1177.9 1177.9 0 0 1-8.5-3.9 542.7 542.7 0 0 0-4.5-2L207 101a2182.8 2182.8 0 0 0-4.2-2 1831.9 1831.9 0 0 0-8.6-3.8 2278.8 2278.8 0 0 1-10.5-4.9l-4-1.8c-2.6-1.2-2.3-1-2.4-.6m16 29a873.6 873.6 0 0 1 7.5 3.2 3972.3 3972.3 0 0 1 16.4 7.1l-1.7 5.5a8257.5 8257.5 0 0 0-5.2 17 227.3 227.3 0 0 0-1.2 4c-.4 1.6-.3 1.6-2.5.6l-4-1.6-9.7-4.1a875.2 875.2 0 0 0-4.2-1.8 26 26 0 0 1-2-1c-.2 0 .2-2.1 2.5-15.6a5041.8 5041.8 0 0 0 2.5-14l1.7.6M26.5 194.3v15l1.5 1a1518.4 1518.4 0 0 1 20 13.5l3.3 2.2v-30l-2-1.3-4.7-3.2a5023 5023 0 0 0-4.6-3.1 2962.8 2962.8 0 0 1-12.2-8.3l-1-.7c-.1 0-.2 6.6-.2 14.9m296.8 4.8v15l4.4 3a6844.2 6844.2 0 0 0 20 13.6c.3.1.3-.6.3-14.8v-15l-2.5-1.7-5.8-3.9a9745.2 9745.2 0 0 0-12.3-8.4l-4-2.7v15M52 211.5v15l.6.4a1015.8 1015.8 0 0 0 16 11l6.2 4 2 1.5v-30l-4-2.7a9445.6 9445.6 0 0 1-5.3-3.6l-15-10.3-.5-.3v15"/>
    <path fill="#5c646c" d="M128.6 63v31a27706.1 27706.1 0 0 0 0-31m92.3 11.7v7.5-15 7.5M399 88c.1.2.2 12.9.2 61.7V211v-61.5c.1-58.3.1-61.4-.2-61.6-.2-.2-.2-.2 0 0m-25 44.7a1970.4 1970.4 0 0 0 .2 0 2998.3 2998.3 0 0 0-.2 0"/>
    <path fill="#7c7c84" d="M297 65c0 44 0 46.3.2 46.5.3.2.3.2.1 0-.2-.2-.2-9.9-.2-46.6V18.6l-.1 46.3M348 99a471 471 0 0 0 .2 0 721.9 721.9 0 0 0-.2 0m-245 39.6a1884 1884 0 0 0 .1-.1v-30.7l-.1 30.8m25 16.3c-.1 0-.2 14-.1 30.9v30.6l.1-30.9a5051.5 5051.5 0 0 0 0-30.6M26.3 194.2v9.7a739.2 739.2 0 0 0 0-9.7m296.8 4.9v7.5a1597.3 1597.3 0 0 0 0-7.5M51.2 211v7.5a1545 1545 0 0 0 0-7.5m296.9 5v7.5-15 7.5"/>
  </g>
</svg>
